<?xml version="1.0" encoding="utf-8"?>
<!-- Generator: Adobe Illustrator 19.0.0, SVG Export Plug-In . SVG Version: 6.00 Build 0)  -->
<svg version="1.1" id="Layer_1" xmlns="http://www.w3.org/2000/svg" xmlns:xlink="http://www.w3.org/1999/xlink" x="0px" y="0px"
	 viewBox="0 0 500 500" style="enable-background:new 0 0 500 500;" xml:space="preserve">
<style type="text/css">
	.st0{fill:#FF5A5F;}
</style>
<g id="XMLID_1_">
	<path id="XMLID_30_" class="st0" d="M259.9,221.7c0,4.1-3.3,7.4-7.4,7.4c-4.1,0-7.4-3.3-7.4-7.4c0-4.1,3.2-7.4,7.4-7.4
		C256.7,214.4,259.9,217.7,259.9,221.7z M229.3,236.6c0,0.7,0,1.8,0,1.8s-3.5-4.6-11.1-4.6c-12.4,0-22.1,9.5-22.1,22.6
		c0,13,9.6,22.6,22.1,22.6c7.6,0,11.1-4.7,11.1-4.7v1.9c0,0.9,0.7,1.6,1.6,1.6h9.2V235c0,0-8.4,0-9.2,0
		C230,235,229.3,235.8,229.3,236.6z M229.3,264.1c-1.7,2.5-5.1,4.7-9.2,4.7c-7.3,0-12.9-4.6-12.9-12.3c0-7.8,5.6-12.3,12.9-12.3
		c4,0,7.6,2.3,9.2,4.7V264.1z M247,235h10.9v42.9H247V235z M410.5,233.9c-7.5,0-11.1,4.6-11.1,4.6v-24.1h-10.9v63.5c0,0,8.4,0,9.2,0
		c0.9,0,1.6-0.8,1.6-1.6v-1.9c0,0,3.5,4.7,11.1,4.7c12.4,0,22.1-9.6,22.1-22.6C432.5,243.4,422.8,233.9,410.5,233.9z M408.7,268.6
		c-4.2,0-7.5-2.2-9.2-4.7v-15.3c1.7-2.3,5.4-4.7,9.2-4.7c7.3,0,12.9,4.6,12.9,12.3C421.6,264.1,416,268.6,408.7,268.6z M382.8,252.5
		V278h-10.9v-24.3c0-7.1-2.3-9.9-8.4-9.9c-3.3,0-6.7,1.7-8.9,4.2v29.9h-10.9V235h8.7c0.9,0,1.6,0.8,1.6,1.6v1.8
		c3.2-3.3,7.4-4.6,11.6-4.6c4.8,0,8.8,1.4,12,4.1C381.3,241.2,382.8,245.3,382.8,252.5z M317,233.9c-7.5,0-11.1,4.6-11.1,4.6v-24.1
		H295v63.5c0,0,8.4,0,9.2,0c0.9,0,1.6-0.8,1.6-1.6v-1.9c0,0,3.5,4.7,11.1,4.7c12.4,0,22.1-9.6,22.1-22.6
		C339.1,243.4,329.4,233.9,317,233.9z M315.2,268.6c-4.2,0-7.5-2.2-9.2-4.7v-15.3c1.7-2.3,5.4-4.7,9.2-4.7c7.3,0,12.9,4.6,12.9,12.3
		C328.1,264.1,322.5,268.6,315.2,268.6z M285.5,233.9c3.3,0,5,0.6,5,0.6v10.1c0,0-9.1-3.1-14.8,3.4v30h-10.9v-43c0,0,8.4,0,9.2,0
		c0.9,0,1.6,0.8,1.6,1.6v1.8C277.7,236,282.1,233.9,285.5,233.9z M171.8,274c-0.6-1.4-1.1-2.9-1.7-4.1c-0.9-2.1-1.8-4-2.6-5.8
		l-0.1-0.1c-7.9-17.1-16.3-34.4-25.2-51.5l-0.3-0.7c-0.9-1.7-1.8-3.5-2.7-5.4c-1.1-2.1-2.3-4.2-4.1-6.3c-3.6-4.6-8.9-7.1-14.5-7.1
		c-5.7,0-10.8,2.5-14.6,6.8c-1.7,2.1-3,4.2-4.1,6.3c-0.9,1.8-1.8,3.6-2.7,5.4l-0.3,0.7c-8.8,17.1-17.3,34.4-25.2,51.5l-0.1,0.2
		c-0.8,1.8-1.7,3.8-2.6,5.8c-0.6,1.3-1.1,2.6-1.7,4.1c-1.5,4.2-1.9,8.2-1.4,12.3c1.3,8.6,7,15.7,14.8,18.9c3,1.3,6,1.8,9.2,1.8
		c0.9,0,2.1-0.1,3-0.2c3.8-0.5,7.6-1.7,11.4-3.9c4.7-2.6,9.1-6.4,14.1-11.9c5,5.5,9.6,9.2,14.1,11.9c3.8,2.2,7.6,3.4,11.4,3.9
		c0.9,0.1,2.1,0.2,3,0.2c3.2,0,6.4-0.6,9.2-1.8c8-3.2,13.6-10.5,14.8-18.9C173.8,282.2,173.3,278.2,171.8,274z M120.4,279.9
		c-6.2-7.8-10.1-15.1-11.5-21.2c-0.6-2.6-0.7-4.9-0.3-7c0.2-1.8,0.9-3.4,1.8-4.8c2.2-3.1,5.8-5,10-5c4.2,0,8,1.8,10,5
		c0.9,1.4,1.6,3,1.8,4.8c0.3,2.1,0.2,4.4-0.3,7C130.6,264.8,126.6,272.1,120.4,279.9z M165.9,285.3c-0.8,5.9-4.8,11.1-10.4,13.3
		c-2.7,1.1-5.7,1.5-8.7,1.1c-2.9-0.3-5.7-1.3-8.7-3c-4.1-2.3-8.2-5.8-13-11.1c7.5-9.2,12.1-17.7,13.8-25.2c0.8-3.5,0.9-6.7,0.6-9.7
		c-0.5-2.9-1.5-5.5-3.1-7.8c-3.5-5.1-9.5-8.1-16.1-8.1c-6.6,0-12.5,3.1-16.1,8.1c-1.6,2.3-2.6,4.9-3.1,7.8c-0.5,3-0.3,6.3,0.6,9.7
		c1.7,7.5,6.4,16.1,13.8,25.3c-4.7,5.2-8.9,8.8-13,11.1c-3,1.7-5.8,2.6-8.7,3c-3.1,0.3-6-0.1-8.7-1.1c-5.6-2.3-9.6-7.4-10.4-13.3
		c-0.3-2.9-0.1-5.7,1-8.9c0.3-1.1,0.9-2.3,1.5-3.6c0.8-1.8,1.7-3.8,2.6-5.7l0.1-0.2c7.9-17,16.3-34.3,25.1-51.2l0.3-0.7
		c0.9-1.7,1.8-3.5,2.7-5.2c0.9-1.8,1.9-3.5,3.2-5c2.4-2.7,5.6-4.2,9.1-4.2c3.5,0,6.7,1.5,9.1,4.2c1.3,1.5,2.3,3.2,3.2,5
		c0.9,1.7,1.8,3.5,2.7,5.2l0.3,0.7c8.7,17,17.1,34.3,25,51.3v0.1c0.9,1.8,1.7,3.9,2.6,5.7c0.6,1.4,1.1,2.5,1.5,3.6
		C166,279.5,166.4,282.3,165.9,285.3z"/>
</g>
</svg>
