<?xml version="1.0" encoding="utf-8"?>
<!-- Generator: Adobe Illustrator 19.0.0, SVG Export Plug-In . SVG Version: 6.00 Build 0)  -->
<svg version="1.1" id="Layer_1" xmlns="http://www.w3.org/2000/svg" xmlns:xlink="http://www.w3.org/1999/xlink" x="0px" y="0px"
	 viewBox="0 0 500 500" style="enable-background:new 0 0 500 500;" xml:space="preserve">
<style type="text/css">
	.st0{fill:#343433;}
</style>
<g id="XMLID_1_">
	<path id="XMLID_3_" class="st0" d="M125.1,252.6c-0.1-7.2,2.9-12.7,9.1-16.7c-3.5-5.2-8.7-8.1-15.5-8.7c-2.4-0.2-5.5,0.3-9.3,1.8
		c-4.1,1.5-6.4,2.3-6.9,2.3c-1.1,0-3.1-0.6-6.2-1.9c-3-1.3-5.6-1.9-7.8-1.9c-3.6,0.1-7,1.1-10.1,3c-3.1,2-5.6,4.7-7.5,8.1
		c-2.4,4.2-3.6,9.3-3.6,15.2c0,5.3,0.9,10.6,2.6,15.9c1.6,5.1,3.7,9.5,6.3,13.3c2.3,3.5,4.2,6,5.9,7.6c2.4,2.5,4.9,3.6,7.5,3.5
		c1.6-0.1,3.8-0.7,6.4-1.9c2.5-1.1,5-1.7,7.5-1.7c2.3,0,4.7,0.6,7.2,1.7c2.8,1.2,5,1.8,6.8,1.8c2.6-0.1,5-1.3,7.3-3.4
		c0.8-0.7,1.7-1.7,2.6-2.9c0.9-1.2,2-2.7,3.1-4.4c0.8-1.2,1.6-2.6,2.3-4c0.8-1.4,1.5-2.9,2.1-4.5c0.3-0.6,0.5-1.3,0.8-2
		c0.2-0.7,0.5-1.4,0.7-2.1c-2.1-0.9-4-2.3-5.7-4C127,262.8,125.1,258.2,125.1,252.6z"/>
	<polygon id="XMLID_4_" class="st0" points="186.5,268.4 186.1,268.4 168.9,228.5 155.4,228.5 155.4,292.8 167.1,292.8 167.1,251.1 
		167.7,251.1 182.1,284.2 190.3,284.2 204.6,251.1 205.2,251.1 205.2,292.8 217.1,292.8 217.1,228.5 203.7,228.5 	"/>
	<path id="XMLID_5_" class="st0" d="M114.4,220c3-3.8,4.5-7.9,4.5-12.3v-0.9l-0.1-0.9c-2.1,0.1-4.3,0.8-6.6,2
		c-2.3,1.2-4.3,2.8-5.8,4.7c-3.1,3.7-4.6,7.7-4.6,11.9v0.8l0.1,0.8C106.6,226.7,110.7,224.6,114.4,220z"/>
	<rect id="XMLID_6_" x="354.6" y="228.5" class="st0" width="13.2" height="64.4"/>
	<path id="XMLID_7_" class="st0" d="M407.8,238.7c7.8,0,12,6.1,12,12.7h12.7v-1.4c0-12.4-9.4-22.8-24.8-22.8
		c-16.5,0-26.4,11-26.4,29.8v7.3c0,18.8,9.8,29.7,26.3,29.7c15.8,0,24.8-10.5,24.8-22.2v-1.4h-12.7c0,6.6-4.1,12.2-11.9,12.2
		c-8,0-13.1-5.8-13.1-18.2v-7.3C394.8,244.8,399.9,238.7,407.8,238.7z"/>
	<path id="XMLID_8_" class="st0" d="M267.7,269.1c0,8.6-5,13.4-12.3,13.4c-7.3,0-12.3-4.7-12.3-13.4v-40.6H230V271
		c0,13.7,9.6,23.1,25.5,23.1c15.8,0,25.5-9.3,25.5-23.1v-42.5h-13.2V269.1z"/>
	<path id="XMLID_9_" class="st0" d="M324.6,255.3l-9.4-2.2c-5.6-1.2-8.5-3.7-8.5-7.4c0-5,4-8.1,10.4-8.1c7.2,0,10.8,4.2,11.1,8.7
		h12.3c-0.1-11.4-9.5-19.3-23.4-19.3c-13.2,0-23.6,7-23.6,19.7c0,10.9,7.3,16,16.1,18l9.4,2.2c6.3,1.5,9.5,3.6,9.5,8
		c0,5-3.9,8.4-11.3,8.4c-7.9,0-12-4.2-12.4-9h-12.7c0.2,9.1,6.1,19.7,24.5,19.7c15.4,0,25-7.8,25-20.4
		C341.5,261.9,333.8,257.4,324.6,255.3z"/>
</g>
</svg>
