<?xml version="1.0" encoding="utf-8"?>
<!-- Generator: Adobe Illustrator 19.0.0, SVG Export Plug-In . SVG Version: 6.00 Build 0)  -->
<svg version="1.1" id="Layer_1" xmlns="http://www.w3.org/2000/svg" xmlns:xlink="http://www.w3.org/1999/xlink" x="0px" y="0px"
	 viewBox="0 0 500 500" style="enable-background:new 0 0 500 500;" xml:space="preserve">
<style type="text/css">
	.st0{fill:#4775BA;}
	.st1{fill:#9EB7DB;}
</style>
<g>
	<path id="XMLID_20_" class="st0" d="M86.3,220.1c5.5,0.1,11,0.1,16.5,0c0.1,5.6,0.1,11.1,0,16.6c-5.5-0.1-11,0-16.5,0
		C86.2,231.2,86.2,225.6,86.3,220.1L86.3,220.1z"/>
	<path id="XMLID_19_" class="st0" d="M65,220.1c5.5,0,11,0,16.6,0c0,5.5,0,11,0,16.6c-5.5,0-11.1,0-16.6,0
		C65,231.2,65,225.7,65,220.1L65,220.1z"/>
	<path id="XMLID_18_" class="st0" d="M107.4,220.1c5.5,0,11,0,16.6,0c0,5.5,0,11,0,16.6c-5.5,0-11,0-16.6,0
		C107.4,231.2,107.4,225.7,107.4,220.1L107.4,220.1z"/>
	<path id="XMLID_17_" class="st0" d="M196.6,220.1c1.4,0,2.8,0,4.3,0c0,19.6,0,39.3,0,58.9c-1.4,0-2.8,0-4.3,0
		C196.6,259.4,196.6,239.8,196.6,220.1L196.6,220.1z"/>
	<path id="XMLID_16_" class="st0" d="M290.8,220.1c2.6,0,5.2,0,7.8,0c0,8.4,0,16.8,0,25.2c3-3.6,7.5-6.1,12.3-5.9
		c3.7,0,7.5,1.7,9.7,4.8c2.5,3.5,3.1,7.9,3,12.1c0,7.6,0,15.1,0,22.7c-2.6,0-5.2,0-7.8,0c0-7.9,0-15.7,0-23.6c0-2.6-0.5-5.4-2.3-7.5
		c-1.9-2.2-5.2-2.8-7.9-1.9c-2.8,1-5.1,3.1-7,5.3c0,9.2,0.1,18.4,0,27.6c-2.6,0-5.2,0-7.8,0C290.7,259.4,290.7,239.8,290.8,220.1
		L290.8,220.1z"/>
	<path id="XMLID_15_" class="st0" d="M408.3,244.2c4.2-4,8.2-8.1,12.4-12.1c0,2.7-0.1,5.4,0.1,8.1c4.1-0.1,8.2-0.1,12.3,0
		c0,2.3,0,4.7,0,7c-4.1,0.1-8.2-0.1-12.4,0.1c0.1,6.7,0,13.5,0.1,20.2c0,2.6,2,4.9,4.6,5.2c3.5,0.4,6.7-1.1,9.7-2.8
		c0,2.4,0,4.9,0,7.3c-4.9,2.5-11,3.7-16.1,1.1c-3.7-1.8-5.8-5.9-5.9-9.9c-0.1-7.1,0.1-14.2-0.1-21.3c-2.2,0.1-4.5,0-6.7,0
		C406.1,245.9,407.5,245.1,408.3,244.2L408.3,244.2z"/>
	<path id="XMLID_14_" class="st0" d="M386.3,239.7c5.1-0.9,10.4,0.4,15,2.9c0,2.6,0,5.2,0,7.7c-3.5-2.1-7.3-4-11.5-4.1
		c-1.9,0-4.2,0.8-4.8,2.8c-0.4,1.5,0.9,2.6,1.8,3.5c4.6,3.7,10.4,5.9,14.3,10.5c2.6,3,2.4,7.7,0.5,11c-1.9,3.3-5.6,5.3-9.3,5.7
		c-5.4,0.6-10.9-0.9-15.6-3.4c0-2.8,0-5.7,0-8.5c3.7,2.4,7.7,4.7,12.2,5.1c2.4,0.1,5.5-0.9,6.2-3.5c0.4-1.8-1.1-3.2-2.4-4.2
		c-4.5-3.1-9.9-5.1-13.5-9.4c-2.7-3.1-2.8-7.9-0.7-11.4C380.1,241.8,383.2,240.3,386.3,239.7L386.3,239.7z"/>
	<path id="XMLID_13_" class="st0" d="M210.5,240.2c1.4,0,2.8,0,4.3,0c0,8.2,0,16.3,0,24.5c0,3.4,1.3,7,4.2,9.1
		c2.9,2.1,6.7,2.3,10,1.4c3.1-0.8,5.5-3.1,7.3-5.6c0.6-0.9,1.6-1.8,1.5-2.9c0-8.8,0-17.6,0-26.4c1.4,0,2.8,0,4.3,0
		c0,12.9-0.1,25.9,0.1,38.8c-1.4,0.1-2.9,0.1-4.3,0.1c0-2.1,0-4.3,0-6.4c-2,2.8-4.5,5.5-7.9,6.5c-4.8,1.4-10.4,0.7-14.4-2.4
		c-3.4-2.8-5-7.3-5-11.6C210.5,256.9,210.5,248.6,210.5,240.2L210.5,240.2z"/>
	<path id="XMLID_12_" class="st0" d="M65,241.4c5.5-0.1,11.1-0.1,16.6,0c-0.1,5.5,0,11,0,16.5c-5.5,0.1-11.1,0.1-16.6,0
		C65,252.4,65.1,246.9,65,241.4L65,241.4z"/>
	<path id="XMLID_11_" class="st0" d="M86.2,241.3c5.5,0,11,0,16.6,0c0,5.5,0,11,0,16.6c-5.5,0-11,0-16.6,0
		C86.2,252.4,86.2,246.8,86.2,241.3L86.2,241.3z"/>
	<path id="XMLID_10_" class="st0" d="M107.4,241.4c5.5,0,11.1,0,16.6,0c0,5.5,0,11,0,16.6c-5.5-0.1-11,0-16.6-0.1
		C107.4,252.4,107.4,246.9,107.4,241.4L107.4,241.4z"/>
	<path id="XMLID_2_" class="st0" d="M153.2,220.1c1.4,0,2.8,0,4.3,0c0,8.4,0,16.8,0,25.2c1.3-0.8,2.3-1.9,3.5-2.8
		c7.3-5.3,18.9-3.9,24.1,3.6c3.4,4.7,4.1,10.9,3.2,16.6c-0.8,5.1-3.4,10-7.6,13c-4.4,3.3-10.1,4.3-15.6,4c-4.1-0.2-8.1-1.4-11.9-2.9
		C153.2,258,153.2,239.1,153.2,220.1L153.2,220.1z M158.6,249.3c-0.4,0.5-1.1,1-1.1,1.8c0,7.6,0,15.2,0,22.9
		c4.6,1.7,9.8,2.4,14.6,1.1c4.1-1.1,7.8-3.9,9.9-7.6c3.1-5.7,2.9-13-0.5-18.5c-2.6-4-7.5-6.5-12.3-5.7
		C164.9,243.6,161.4,246.4,158.6,249.3L158.6,249.3z"/>
	<path id="XMLID_3_" class="st0" d="M256.1,243.1c6.5-5.3,17-4.8,22.9,1.2c3.7,3.6,5.1,8.9,5.2,13.9c-10.2,0-20.4,0-30.6,0
		c-1.4,8,4.9,16.1,12.9,17.3c6.2,1.1,12.3-1.7,16.9-5.6c0,1.6,0,3.3,0,4.9c-3.7,2.8-8.2,4.8-13,5c-5.6,0.6-11.6-1.3-15.6-5.4
		c-4-4.1-5.9-9.9-5.8-15.6C249.1,253,251.4,246.9,256.1,243.1L256.1,243.1z M258.9,246.5c-2.6,2.1-4.1,5.2-4.9,8.3
		c8.3,0.1,16.7,0,25,0.1c-0.8-3.7-2.4-7.5-5.8-9.6C268.9,242.7,262.9,243.2,258.9,246.5L258.9,246.5z"/>
	<path id="XMLID_4_" class="st0" d="M349,239.5c6.6-0.5,13.5,1.6,18,6.6c5.7,6.2,6.3,16,2.6,23.3c-2.5,5-7.5,8.6-12.9,9.8
		c-6.3,1.5-13.3,0.6-18.5-3.4c-8.4-6.2-10.3-19.3-4.4-27.8C337.2,243.1,343,240,349,239.5L349,239.5z M347.1,247
		c-2.5,0.7-4.7,2.3-6.3,4.3c-3.5,4.7-3.3,11.7-0.1,16.5c4.8,7.2,17.3,6.5,21.4-1c3-5.6,2.3-13.7-3.1-17.6
		C355.7,246.6,351.2,245.9,347.1,247L347.1,247z"/>
	<path id="XMLID_22_" class="st0" d="M86.2,262.5c5.5,0,11,0,16.5,0c0.1,5.5,0,11,0.1,16.6c-5.5,0.1-11,0-16.6,0.1
		C86.2,273.6,86.2,268,86.2,262.5L86.2,262.5z"/>
	<path id="XMLID_23_" class="st0" d="M65,262.5c5.5,0,11,0,16.6,0c0,5.5,0,11,0,16.6c-5.5,0-11,0-16.6,0C65,273.6,65,268,65,262.5
		L65,262.5z"/>
	<path id="XMLID_24_" class="st1" d="M107.4,262.5c5.5,0,11,0,16.5,0c0,5.5,0,11,0,16.5c-5.5,0-11,0-16.5,0
		C107.4,273.6,107.4,268.1,107.4,262.5L107.4,262.5z"/>
</g>
</svg>
