<?xml version="1.0" encoding="utf-8"?>
<!-- Generator: Adobe Illustrator 19.0.0, SVG Export Plug-In . SVG Version: 6.00 Build 0)  -->
<svg version="1.1" id="Layer_1" xmlns="http://www.w3.org/2000/svg" xmlns:xlink="http://www.w3.org/1999/xlink" x="0px" y="0px"
	 viewBox="0 0 500 500" style="enable-background:new 0 0 500 500;" xml:space="preserve">
<style type="text/css">
	.st0{fill:#45535E;}
	.st1{fill:#F8761F;}
</style>
<g id="XMLID_1_">
	<polygon id="XMLID_3_" class="st0" points="67.5,216.8 80.2,216.8 80.2,245.1 107.1,245.1 107.1,216.8 119.8,216.8 119.8,286.2 
		107.1,286.2 107.1,257.4 80.2,257.4 80.2,286.2 67.5,286.2 	"/>
	<path id="XMLID_4_" class="st0" d="M160.1,263.6c0,5.8-4.7,10.5-10.5,10.5c-5.8,0-10.5-4.7-10.5-10.5v-29.9H127v29.9
		c0,12.5,10.1,22.6,22.6,22.6c12.5,0,22.6-10.1,22.6-22.6v-29.9h-12.1V263.6"/>
	<path id="XMLID_7_" class="st0" d="M205.9,234.1c-6,0-10.2,1.7-14.2,5.7v-23h-12.1v42.6c0,15.9,11.5,26.8,24.5,26.8
		c14.4,0,27-11.1,27-26.1C231,245.4,219.4,234.1,205.9,234.1z M206.2,275c-8.2,0-14.5-6.9-14.5-14.9c0-8,6.3-14.9,14.5-14.9
		c7,0,13.2,6.9,13.2,14.9C219.4,268.2,213.1,275,206.2,275z"/>
	<path id="XMLID_8_" class="st0" d="M251.4,237.1c0-6.1,4.1-8,8.5-8c3.6,0,8.3,2.7,11.4,6l7.9-9.3c-4-5.3-12-9-18.5-9
		c-13.1,0-22.6,7.6-22.6,20.3c0,23.5,28.9,16,28.9,29.2c0,4.1-4,7.6-8.5,7.6c-7.1,0-9.5-3.5-12.7-7.1l-8.8,9.1
		c5.6,6.9,12.6,10.3,20.9,10.3c12.5,0,22.5-7.7,22.5-19.8C280.2,240.3,251.4,248.4,251.4,237.1"/>
	<path id="XMLID_11_" class="st0" d="M312.1,233.4c-12.9,0-24.5,10.9-24.5,26.8v42.7h12.1v-23.1c4,4,8.2,5.7,14.2,5.7
		c13.5,0,25.1-11.3,25.1-26.1C339.1,244.5,326.5,233.4,312.1,233.4z M314.3,274.3c-8.2,0-14.5-6.9-14.5-14.9c0-8,6.3-14.9,14.5-14.9
		c7,0,13.2,6.9,13.2,14.9C327.5,267.5,321.2,274.3,314.3,274.3z"/>
	<path id="XMLID_12_" class="st0" d="M428.2,275c-7.1,0-9.2-3.1-9.2-7.8v-21h11.1v-10.6h-11.1v-14l-12.3,5.5v42.7
		c0,10.9,7.5,16.4,17.9,16.4c1.5,0,3.7-0.1,4.8-0.4l3-11C431.1,274.9,429.6,275,428.2,275"/>
	<path id="XMLID_15_" class="st1" d="M396.3,246.9c-2.3-4-5.6-7.2-9.7-9.6c-3.1-1.8-6.2-2.9-9.8-3.4v-12.7c3.6-1.5,5.8-4.9,5.8-8.8
		c0-5.3-4.3-9.6-9.6-9.6c-5.3,0-9.7,4.3-9.7,9.6c0,3.9,2.1,7.3,5.6,8.8v12.7c-2.9,0.4-5.8,1.3-8.5,2.7c-5.5-4.2-23.6-17.9-34.2-26
		c0.3-0.9,0.4-1.8,0.4-2.8c0-5.9-4.8-10.7-10.7-10.7c-5.9,0-10.7,4.8-10.7,10.7c0,5.9,4.8,10.7,10.7,10.7c2,0,3.9-0.6,5.5-1.6
		l2.2,1.7l30.7,22.1c-1.6,1.5-3.1,3.2-4.3,5.1c-2.4,3.9-3.9,8.1-3.9,12.8v1c0,3.3,0.6,6.3,1.7,9.2c0.9,2.5,2.3,4.8,4,6.9l-10.2,10.2
		c-0.9-0.3-1.9-0.5-2.8-0.5c-2.2,0-4.3,0.9-5.8,2.4c-1.6,1.6-2.4,3.6-2.4,5.8c0,2.2,0.9,4.3,2.4,5.8c1.6,1.6,3.6,2.4,5.8,2.4
		c2.2,0,4.3-0.9,5.8-2.4c1.6-1.6,2.4-3.6,2.4-5.8c0-0.9-0.1-1.7-0.4-2.5l10.5-10.5c1.4,1,3,1.8,4.7,2.6c3.3,1.4,7,2.3,10.9,2.3h0.7
		c4.4,0,8.6-1,12.5-3.2c4.1-2.2,7.4-5.3,9.8-9.2c2.5-3.9,3.8-8.3,3.8-13v-0.2C399.7,255.2,398.6,250.8,396.3,246.9z M383.5,268.9
		c-2.9,3.2-6.1,5.1-9.9,5.1H373c-2.1,0-4.2-0.6-6.2-1.7c-2.3-1.2-4-2.8-5.5-5c-1.5-2.1-2.3-4.4-2.3-6.8V260c0-2.4,0.5-4.6,1.6-6.7
		c1.2-2.3,2.9-4.1,5.1-5.6c2.2-1.4,4.5-2.1,7-2.1h0.2c2.3,0,4.5,0.5,6.6,1.5c2.1,1.1,3.9,2.7,5.2,4.7c1.3,2,2.1,4.2,2.3,6.6
		c0,0.5,0.1,1,0.1,1.5C387.2,263.2,385.9,266.2,383.5,268.9z"/>
</g>
</svg>
