<?xml version="1.0" encoding="utf-8"?>
<!-- Generator: Adobe Illustrator 19.0.0, SVG Export Plug-In . SVG Version: 6.00 Build 0)  -->
<svg version="1.1" id="Layer_1" xmlns="http://www.w3.org/2000/svg" xmlns:xlink="http://www.w3.org/1999/xlink" x="0px" y="0px"
	 viewBox="0 0 500 500" style="enable-background:new 0 0 500 500;" xml:space="preserve">
<style type="text/css">
	.st0{fill:#FF690F;}
	.st1{fill:#FFFFFF;}
</style>
<g>
	<rect x="67.5" y="215" class="st0" width="69.9" height="69.9"/>
	<rect x="89" y="232.5" class="st1" width="8.5" height="35"/>
	<polygon class="st1" points="115.9,267.5 106.5,267.5 96.8,250 106.5,232.5 115.9,232.5 106.1,250 	"/>
	<rect x="141.3" y="215" class="st0" width="69.9" height="69.9"/>
	<path class="st1" d="M169.9,262.4l-1.5,5.1h-9.1l11.5-35h10.8l11.4,35h-9.3l-1.5-5L169.9,262.4z M176.1,242.5l-4.1,13.1h8.2
		L176.1,242.5z"/>
	<rect x="215" y="215" class="st0" width="69.9" height="69.9"/>
	<polygon class="st1" points="254.4,267.5 245.8,267.5 245.8,252.1 234.3,232.5 244.5,232.5 250.1,243.2 255.7,232.5 265.7,232.5 
		254.4,252.1 	"/>
	<rect x="288.8" y="215" class="st0" width="69.9" height="69.9"/>
	<path class="st1" d="M317.5,262.4l-1.5,5.1h-9.1l11.5-35h10.8l11.4,35h-9.3l-1.5-5L317.5,262.4z M323.6,242.5l-4.1,13.1h8.2
		L323.6,242.5z"/>
	<rect x="362.6" y="215" class="st0" width="69.9" height="69.9"/>
	<rect x="384.1" y="232.5" class="st1" width="8.5" height="35"/>
	<polygon class="st1" points="411,267.5 401.6,267.5 391.9,250 401.6,232.5 411,232.5 401.2,250 	"/>
</g>
</svg>
