<?xml version="1.0" encoding="utf-8"?>
<!-- Generator: Adobe Illustrator 19.0.0, SVG Export Plug-In . SVG Version: 6.00 Build 0)  -->
<svg version="1.1" id="Layer_1" xmlns="http://www.w3.org/2000/svg" xmlns:xlink="http://www.w3.org/1999/xlink" x="0px" y="0px"
	 viewBox="0 0 500 500" style="enable-background:new 0 0 500 500;" xml:space="preserve">
<style type="text/css">
	.st0{fill:#B81D24;}
</style>
<g id="layer1" transform="translate(-384.28572,-428.81172)">
	<g id="g3235" transform="matrix(2.5445375,0,0,2.5445375,1157.1714,-1457.8678)">
		<path id="path3015" class="st0" d="M-154.1,856.9c2,0.2,4,0.4,6.1,0.6l4.5-11l4.2,12c2.2,0.3,4.3,0.6,6.5,0.9l-7.4-21.1l7.4-18.4
			h-6.3l-0.1,0.1l-4,9.9l-3.5-10h-6.2l6.4,18.2L-154.1,856.9z"/>
		<path id="path3019" class="st0" d="M-158.8,856.5V820h-6.2v36C-162.9,856.1-160.8,856.3-158.8,856.5"/>
		<path id="path3023" class="st0" d="M-205.4,854.5c1.7,0,3.4,0,5,0v-13.4h7.5v-5.7h-7.5v-9.7h8.6V820h-14.8v34.5
			C-206.2,854.5-205.8,854.5-205.4,854.5"/>
		<path id="path3035" class="st0" d="M-224.7,854.8c2.1-0.1,4.1-0.1,6.2-0.2v-28.9h5.8V820h-17.8v5.7h5.8V854.8L-224.7,854.8z"/>
		<path id="path3039" class="st0" d="M-272.2,858.7v-21.8l7.4,20.9c2.3-0.3,4.5-0.5,6.8-0.7V820h-6v22.5L-272,820h-0.3h-6v39.4h0
			C-276.2,859.2-274.2,858.9-272.2,858.7"/>
		<path id="path3051" class="st0" d="M-236.5,825.7V820h-14.8v30.7v5.7v0c4.9-0.4,9.9-0.8,14.8-1.1v0v-1.6v-4.1
			c-2.9,0.2-5.7,0.4-8.6,0.6v-9.1h7.5v-5.7h-7.5v-9.6L-236.5,825.7L-236.5,825.7z"/>
		<path id="path3055" class="st0" d="M-179.5,849.4V820h-6.2v29.1v5.7v0c5,0.2,9.9,0.4,14.8,0.8v0v-1.8v-3.9
			C-173.8,849.7-176.6,849.5-179.5,849.4"/>
	</g>
</g>
</svg>
