<?xml version="1.0" encoding="utf-8"?>
<!-- Generator: Adobe Illustrator 19.0.0, SVG Export Plug-In . SVG Version: 6.00 Build 0)  -->
<svg version="1.1" id="Layer_1" xmlns="http://www.w3.org/2000/svg" xmlns:xlink="http://www.w3.org/1999/xlink" x="0px" y="0px"
	 viewBox="0 0 500 500" style="enable-background:new 0 0 500 500;" xml:space="preserve">
<style type="text/css">
	.st0{fill:#443642;}
	.st1{fill:#70CADB;}
	.st2{fill:#E01765;}
	.st3{fill:#E8A723;}
	.st4{fill:#3EB890;}
	.st5{fill:#CC2027;}
	.st6{fill:#361238;}
	.st7{fill:#65863A;}
	.st8{fill:#1A937D;}
</style>
<g id="XMLID_1_">
	<path id="XMLID_3_" class="st0" d="M197.2,238.2c0-10.9,7.9-18.4,22.3-18.4c8.8,0,16,2.8,19.9,5.5c0.6,0.4,1.6,1.3,1,3.1
		c-0.8,1.9-2.2,4.8-3.2,6.6c-0.6,1.1-2.1,0.9-2.8,0.6c-2.8-1.4-7.3-3.8-11.5-4.2c-1-0.1-2.1-0.2-3.2-0.1c-3.7,0.1-6.8,1.4-7.8,4.2
		c-0.2,0.6-0.3,1.1-0.3,1.7c-0.1,3.7,5,5,11.3,6.1c11.6,2,20.4,5.4,20.4,17.3c0,10.1-8.1,19.3-23.8,19c-10.4-0.2-17.8-3.7-21.7-7.1
		c-0.1-0.1-1.6-1.6-0.8-3.5c0.9-2.4,2.5-5.1,3.7-6.5c0.7-0.9,2.5-1.1,3.4-0.5c3.3,2,8.6,5.3,14.8,5.5c0.5,0,1,0,1.4,0
		c5.6-0.1,8.9-2.2,8.9-5.8c-0.1-3.1-4.5-5-11.5-6.3C206.2,253.2,197.2,249.5,197.2,238.2"/>
	<path id="XMLID_6_" class="st0" d="M298.9,253.7c-7.9,0.1-15.1,2.3-15.3,8.4c0,4.9,4,7.3,9.5,7c5.3-0.5,9.4-2.8,11.2-5.9
		c0.7-1.1,0.8-5.4,0.7-7.2c0-0.4-0.8-1.1-1.1-1.3C302.3,254,301,253.8,298.9,253.7 M272.6,228.8c3.7-3.3,11-8.4,22.7-8.2
		c15.4,0.3,23.5,7.5,24.3,24.8c0.3,7.1-0.2,27-0.3,31.9c0,0.7-0.3,1.2-1.2,1.2c-2.5,0.1-8.4,0.1-11.1,0c-1.4-0.1-1.5-0.7-1.5-1.4
		c0-0.5-0.1-1.8-0.1-2.9c0-0.6-0.6-0.6-0.7-0.4c-3.6,3.9-9.5,5.7-15.8,5.7c-9.6,0-19.1-5.6-19.1-16.8c0-11.4,8.1-17,17-18.4
		c5.7-0.8,12.1-0.1,17,1.8c0.3,0.1,0.9-0.1,1-0.5c0-1.5-0.1-4.2-0.3-5.5c-0.7-3.3-3.5-6-9.4-6.8c-1.2-0.1-2.4-0.2-3.6-0.1
		c-4.7,0.4-10.3,4-12.6,5.4c-0.5,0.3-1.4,0.1-1.7-0.3c-1.4-1.8-4.8-6.9-5-7.7C271.8,229.9,272.2,229.2,272.6,228.8L272.6,228.8z"/>
	<path id="XMLID_7_" class="st0" d="M324.7,250.1c-0.1-15.9,11-29.3,29-29.5c11.2-0.1,19.4,5,20.8,7.4c0.3,0.6,0.1,1-0.1,1.6
		c-1,2-3.4,5.9-5.1,8.1c-0.7,0.9-1.5,0.1-2.4-0.5c-2.6-1.7-7.4-3.8-12.2-3.8c-8.7,0-15.1,5.9-15,16.9c0.1,10.5,6.2,16.2,15.1,16.4
		c4.6,0.1,9.1-2.5,11.5-4.7c0.8-0.7,1.5-0.3,2.4,0.3c1.7,1.7,4.1,4.4,5.5,6.2c0.9,1,0.2,2-0.1,2.4c-3.7,4.6-10.7,8.5-20,8.6
		C334.5,279.8,324.8,266,324.7,250.1"/>
	<path id="XMLID_8_" class="st0" d="M418,278.9c0.9-0.1,10.7-1.4,13.7-2.1c0.7-0.2,1-0.8,0.6-1.4c-1.7-2.5-6.1-9.7-10.7-16.1
		c-4.2-5.9-8.7-11.1-10.2-13c-0.4-0.5-0.3-1,0.1-1.3c2.8-2.7,14.3-14,18.6-18.7c1.7-1.8,0.7-2.6-0.8-3c-2.8-0.8-7.2-1.8-9.7-2.4
		c-1.1-0.2-2.4-0.1-3.3,0.8c-4.3,4-17.6,17.3-21.5,21.3c-0.7,0.7-1.1,0.6-1.1-0.5c0-7.6-0.2-40.4-0.5-45.8c0-0.7-0.9-1.3-1.4-1.3
		c-2.5-0.1-8.8-0.2-11.2,0c-0.7,0.1-1.4,0.8-1.4,1.4c-0.6,8.6,0.2,71.8,0.6,80.7c0,0.6,0.5,1.1,1.1,1.2c2.5,0.1,8.6,0.1,11.4,0.1
		c1.4,0,1.6-1,1.6-1l0.2-17c0,0,0.1-0.8,0.4-1c1-1.1,3.8-4.1,5-5.2c0.3-0.3,0.7-0.3,1,0.1c1.4,1.9,5.4,8.1,9.1,13.6
		c3.4,5.1,6.6,9.6,6.8,9.9C416.9,278.9,417.5,278.9,418,278.9L418,278.9L418,278.9z"/>
	<path id="XMLID_9_" class="st0" d="M251.5,278.9c0.9,0,7.4,0,10.3,0c1,0,1.5-0.7,1.5-1.4c0.6-12.4,0.4-71.4,0-80.8
		c0-0.8-0.4-1.1-0.9-1.2c-2.5-0.3-9.5-0.3-11.8,0.3c-0.4,0.1-0.7,0.5-0.7,0.9c-0.6,24-0.2,79.4-0.1,80.5
		C249.9,278.3,250.4,278.8,251.5,278.9L251.5,278.9z"/>
	<path id="XMLID_10_" class="st1" d="M76.7,254.2c-4,0-7.4-2.4-8.7-6.1c0-0.1-0.1-0.3-0.1-0.4c-1.4-4.8,1.3-9.8,6-11.4l76.4-25.6
		c0.9-0.3,1.9-0.4,2.8-0.4c4.1,0,7.6,2.4,8.9,6.2l0.1,0.4c1.4,5-2.1,9.5-6.4,10.9c0,0-0.8,0.3-76,25.9
		C78.8,254,77.7,254.2,76.7,254.2z"/>
	<path id="XMLID_11_" class="st2" d="M89.4,291.8c-4.1,0-7.5-2.3-8.7-6c0-0.1-0.1-0.3-0.1-0.4c-1.4-4.9,1.3-9.9,6-11.5L163,248
		c1-0.3,2-0.5,3-0.5c4.1,0,7.6,2.5,8.9,6.2l0.1,0.4c0.7,2.6,0.3,5.5-1.2,7.8c-1.1,1.7-4.5,3.2-4.5,3.2l-76.7,26.2
		C91.6,291.6,90.5,291.7,89.4,291.8L89.4,291.8z"/>
	<path id="XMLID_12_" class="st3" d="M153,291.9c-4.1,0-7.7-2.5-9-6.4l-25.5-75.7l-0.1-0.4c-1.4-4.8,1.3-9.9,6-11.5
		c1-0.3,1.9-0.5,2.9-0.5c1.5,0,2.9,0.3,4.2,1c2.2,1.1,3.9,3,4.7,5.4l25.5,75.7l0.1,0.2c1.4,5-1.2,10.1-6,11.7
		C155,291.7,154,291.9,153,291.9z"/>
	<path id="XMLID_13_" class="st4" d="M115.1,304.7c-4.1,0-7.7-2.5-9-6.4l-25.5-75.7c0-0.1-0.1-0.3-0.1-0.4c-1.4-4.8,1.3-9.9,6-11.5
		c0.9-0.3,1.9-0.5,2.9-0.5c4.1,0,7.7,2.5,9,6.4l25.5,75.7c0,0.1,0.1,0.3,0.1,0.4c1.4,4.8-1.3,9.9-6,11.5
		C117.1,304.5,116.1,304.7,115.1,304.7L115.1,304.7L115.1,304.7z"/>
	<polygon id="XMLID_14_" class="st5" points="140.4,274.9 158.2,268.8 152.4,251.5 134.6,257.5 	"/>
	<polygon id="XMLID_15_" class="st6" points="102.6,287.8 120.4,281.7 114.5,264.3 96.7,270.4 	"/>
	<polygon id="XMLID_16_" class="st7" points="127.8,237.3 145.6,231.2 139.8,214.2 122,220.1 	"/>
	<polygon id="XMLID_17_" class="st8" points="89.9,250.2 107.7,244.1 101.9,226.9 84.1,232.8 	"/>
</g>
</svg>
