<?xml version="1.0" encoding="utf-8"?>
<!-- Generator: Adobe Illustrator 19.0.0, SVG Export Plug-In . SVG Version: 6.00 Build 0)  -->
<svg version="1.1" id="Layer_1" xmlns="http://www.w3.org/2000/svg" xmlns:xlink="http://www.w3.org/1999/xlink" x="0px" y="0px"
	 viewBox="0 0 500 500" style="enable-background:new 0 0 500 500;" xml:space="preserve">
<style type="text/css">
	.st0{fill:#21215E;}
	.st1{fill:#FFFFFF;}
</style>
<g id="XMLID_1_">
	<polygon id="XMLID_3_" class="st0" points="67.5,432.5 432.5,432.5 432.5,67.5 67.5,67.5 67.5,432.5 	"/>
	<path id="XMLID_18_" class="st1" d="M245.4,143.1c-35.6,1.9-63.8,31.7-63.8,68.2c0,36.5,28.2,66.3,63.8,68.2v-11
		c-27.8-1.7-50.2-23.8-52.7-51.8c6.2,24.3,27.2,42.5,52.7,44.1v-9.1c-25.5-1.8-45.6-23.4-45.6-49.7v-0.5
		c3.6,22.9,22.4,40.6,45.6,42.3v-7c-22-1.8-39.3-20.5-39.3-43.3c0-22.8,17.3-41.5,39.3-43.3V143.1z M254.3,143.1v11
		c27.8,1.7,50.2,23.8,52.7,51.8c-6.2-24.3-27.2-42.5-52.7-44v9.1c25.5,1.8,45.6,23.4,45.6,49.7l0,0.4c-3.6-22.9-22.4-40.6-45.6-42.3
		v7c22,1.8,39.4,20.5,39.4,43.3c0,22.8-17.3,41.5-39.4,43.3v7c35.6-1.9,63.8-31.7,63.8-68.2C318.1,174.8,289.9,144.9,254.3,143.1z
		 M238,309c0.3,9.6,0.4,15.2,0.4,25c0,9.1-0.1,14.4-0.4,23.4h8.1c-0.2-5.8-0.4-11.1-0.4-15.8c4,5.1,10.7,12.5,15.2,17.1l7.8-3
		c-4.6-4.1-11.6-11.2-15.7-16.1c4.2-4.1,10.8-9.9,14.6-13.6h-8.6c-3,3.3-9.4,9.6-13.4,13.6c0-14,0.1-20.9,0.4-30.5H238z M272.7,309
		c0.3,9.6,0.4,15.2,0.4,25c0,9.1-0.1,14.4-0.4,23.4h8.1c-0.3-9-0.4-14.3-0.4-23.4c0-9.8,0.1-15.4,0.4-25H272.7z M382.5,309
		c0.3,6.4,0.4,11.4,0.4,16.8c-1.5-0.4-3.1-0.6-5.4-0.6c-9.8,0-17.7,7-17.7,17.3c0,10.1,5.8,15.6,12.2,15.6c4.3,0,8.3-1.8,10.8-5.8
		l0.6,5.1h7.3c-0.3-9-0.4-14.3-0.4-23.4c0-9.8,0-15.4,0.4-25H382.5z M126.8,311.1c-9.7,0-16.3,5.7-16.3,12.4c0,5.7,3,9.7,9.2,12.5
		l5.4,2.3c5.7,2.3,7.2,4.5,7.2,8c0,3.4-3.2,6.1-8.8,6.1c-4.4,0-8.6-1.1-12.2-2.9l-2.3,5.7c4.2,2,9.2,3,14.9,3
		c9.3,0,16.7-5.3,16.7-13.1c0-6.2-3-10.1-9.9-13.1l-4.6-2c-6-2.5-7.4-4.5-7.4-7.4c0-3.2,2.9-5.6,8.6-5.6c3.9,0,7.4,1,10,2.2l2.2-5.6
		C135.9,311.8,132,311.1,126.8,311.1z M155.7,316.2l-7.9,1.7c0.1,2.8,0.1,4.9,0.1,8h-5.3v5.2h5.2c0,5.3-0.2,11.5-0.2,16.3
		c0,6.9,4.1,10.6,9.6,10.6c3.8,0,7.3-1,9.6-2.7l-1.6-4.4c-1.6,1-3.2,1.4-5.4,1.4c-2.2,0-4.4-1.4-4.6-4.4c-0.4-4.3-0.1-10.7-0.1-16.8
		h10v-5.2h-9.9C155.2,322.9,155.3,319.5,155.7,316.2z M317.2,324.6l-5.4,1.6c-2.4-0.7-4.6-1.1-7.9-1.1c-9.8,0-17.7,7-17.7,17.3
		c0,10.1,5.8,15.6,12.2,15.6c4.3,0,8.3-1.8,10.8-5.8l0.6,5.1h7.4c-0.4-6.9-0.4-9.7-0.4-16.4C316.6,334.4,316.7,331,317.2,324.6z
		 M185.9,325.1c-9.9,0-16.6,7.4-16.6,16.8c0,9.5,6.4,16.1,16.6,16.1c9.9,0,16.8-7.5,16.8-16.8C202.7,331.8,196.1,325.1,185.9,325.1z
		 M223.1,325.1c-9.8,0-16.9,7.2-16.9,16.3c0,11,6.9,16.6,15.6,16.6c4.7,0,8.3-1,11.5-3.2l-1.7-4.7c-2.2,1.6-4.8,2.2-7.5,2.2
		c-5.8,0-10-3.6-10-11.6c0-6.3,3.6-10.3,9.8-10.3c2.7,0,5.3,0.6,7.3,1.6l1.8-5.1C230.1,325.7,227.2,325.1,223.1,325.1z M343.6,325.1
		c-4.6,0-8,2-10.6,5.9l-0.6-5.1H325c0.3,6.4,0.4,9.4,0.4,15.8c0,6,0,9.6-0.4,15.6h8.1c-0.3-4.6-0.3-7.2-0.3-11.8
		c0-3.6,0-7.5,0.3-10.1c1.9-3,4.6-4.4,7.2-4.4c3.4,0,5.5,2,5.8,6.1c0.1,2.1,0.2,6,0.2,9.7c0,4.1-0.1,6.4-0.3,10.4h8.1
		c-0.3-4.2-0.3-6.6-0.3-10.8c0-3.4,0.2-5.9,0.2-10C353.9,329.3,349.7,325.1,343.6,325.1z M303.5,330c2.3,0,3.9,0.3,5.5,1.1
		c0.1,1.6,0.2,5.6,0.2,9.2c0,2.5-0.1,5.4-0.2,7.3c-2,3.2-4.5,4.5-7.3,4.5c-4.5,0-7.9-3.4-7.9-11.2C293.9,333.9,298.4,330,303.5,330z
		 M377.1,330c2.3,0,3.9,0.3,5.6,1.1c0.1,2,0.1,5.6,0.1,9.2c0,2.5-0.1,5.4-0.2,7.3c-2,3.2-4.5,4.5-7.3,4.5c-4.5,0-7.9-3.4-7.9-11.2
		C367.5,333.9,372,330,377.1,330z M185.9,330.1c5.5,0,8.8,4.7,8.8,11.5c0,6.8-3.2,11.5-8.8,11.5c-5.5,0-8.7-4.8-8.7-11.5
		C177.2,334.8,180.4,330.1,185.9,330.1z"/>
</g>
</svg>
